<svg xmlns="http://www.w3.org/2000/svg" viewBox="0 0 180 180">
  <!-- Solid background (no rounded corners — iOS clips it) -->
  <rect width="180" height="180" fill="#0f0f10"/>
  <circle cx="90" cy="90" r="62" fill="none" stroke="#ef4444" stroke-width="11" opacity="0.35"/>
  <path fill="#ef4444" d="M115.5 50.6c-9-5.9-19.7-9-31.5-9C61.9 41.6 44 53.3 44 70.1c0 15.2 12.1 22.5 33.5 27 17.2 3.4 23.4 6.8 23.4 13.5 0 7.3-7.6 12.4-19.4 12.4-12.1 0-24.2-4.2-34.3-12.4L36.8 127c11.5 10.7 28.1 16.9 47 16.9 27.6 0 45-13.5 45-32.6 0-16.3-11-24.5-31.2-28.7-18-3.7-25.6-6.2-25.6-12.9 0-6.5 6.8-10.4 17.2-10.4 10.4 0 19.7 3.1 28.4 9.3L115.5 50.6Z"/>
</svg>
