<svg xmlns="http://www.w3.org/2000/svg" viewBox="0 0 512 512">
  <rect width="512" height="512" rx="112" fill="#0f0f10"/>
  <circle cx="256" cy="256" r="176" fill="none" stroke="#ef4444" stroke-width="32" opacity="0.35"/>
  <path fill="#ef4444" d="M328 144c-25.6-16.8-56-25.6-89.6-25.6-62.4 0-108.8 33.6-108.8 83.2 0 43.2 34.4 64 95.2 76.8 48.8 9.6 66.4 19.2 66.4 38.4 0 20.8-21.6 35.2-55.2 35.2-34.4 0-68.8-12-97.6-35.2l-24 36.8c32.8 30.4 80 48 133.6 48 78.4 0 128-38.4 128-92.8 0-46.4-31.2-69.6-88.8-81.6-51.2-10.4-72.8-17.6-72.8-36.8 0-18.4 19.2-29.6 48.8-29.6 29.6 0 56 8.8 80.8 26.4L328 144Z"/>
</svg>
