<svg xmlns="http://www.w3.org/2000/svg" viewBox="0 0 192 192">
  <rect width="192" height="192" rx="42" fill="#0f0f10"/>
  <circle cx="96" cy="96" r="66" fill="none" stroke="#ef4444" stroke-width="12" opacity="0.35"/>
  <path fill="#ef4444" d="M123 54c-9.6-6.3-21-9.6-33.6-9.6C66.6 44.4 47.4 57 47.4 74.8c0 16.2 12.9 24 35.7 28.8 18.3 3.6 24.9 7.2 24.9 14.4 0 7.8-8.1 13.2-20.7 13.2-12.9 0-25.8-4.5-36.6-13.2L37.5 135c12.3 11.4 30 18 50.1 18 29.4 0 48-14.4 48-34.8 0-17.4-11.7-26.1-33.3-30.6-19.2-3.9-27.3-6.6-27.3-13.8 0-6.9 7.2-11.1 18.3-11.1 11.1 0 21 3.3 30.3 9.9L123 54Z"/>
</svg>
